<svg width="653" height="589" viewBox="0 0 653 589" fill="none" xmlns="http://www.w3.org/2000/svg">
<g filter="url(#filter0_d_564_70)">
<circle cx="343.5" cy="292" r="191.966" fill="#FF0000"/>
</g>
<path d="M122.812 364.543C102.18 364.543 84.6246 363.096 70.1461 360.2C55.6675 357.304 43.964 353.202 35.0356 347.893C26.1071 342.584 19.5315 336.25 15.3085 328.89C11.2063 321.409 9.15515 313.145 9.15515 304.095C9.15515 289.617 11.0253 276.888 14.7656 265.908C18.5059 254.929 23.5131 245.759 29.7871 238.399C36.0611 230.918 43.0591 225.308 50.781 221.568C58.5029 217.827 66.3454 215.957 74.3087 215.957C83.5991 215.957 92.9498 216.923 102.361 218.853C111.772 220.783 120.338 223.74 128.06 227.721L117.925 257.221C102.602 241.657 86.2535 233.874 68.8792 233.874C64.7769 233.874 60.916 235.564 57.2964 238.942C53.6767 242.32 50.5397 246.845 47.8853 252.516C45.2309 258.066 43.1194 264.219 41.5509 270.976C40.1031 277.612 39.3791 284.187 39.3791 290.703C39.3791 299.752 40.646 308.017 43.1798 315.497C45.8342 322.857 50.2984 329.493 56.5724 335.405C62.8465 341.197 71.4129 346.325 82.2719 350.789C93.1308 355.132 106.765 358.933 123.174 362.191L122.812 364.543ZM202.318 360.924L199.422 298.847C199.06 290.884 197.974 285.635 196.165 283.102C194.475 280.447 191.761 279.12 188.02 279.12C185.004 279.12 180.781 279.965 175.352 281.654C169.922 283.222 164.674 285.635 159.606 288.893L157.254 360.924H134.993L130.287 219.758H161.959L159.968 280.568C163.709 276.104 168.052 272.182 172.999 268.804C177.946 265.305 183.134 262.59 188.563 260.66C194.114 258.729 199.422 257.764 204.49 257.764C213.539 257.764 219.692 260.238 222.95 265.184C226.208 270.011 227.837 277.069 227.837 286.359C227.837 287.204 227.776 288.048 227.656 288.893C227.656 289.617 227.656 290.462 227.656 291.427L224.76 360.924H202.318ZM236.497 217.224L280.475 224.825L250.975 254.506L236.497 217.224ZM244.279 360.924L239.573 260.117H271.426L266.721 360.924H244.279ZM375.922 363.277L321.447 318.574L311.131 329.795L310.045 360.924H287.784L283.078 219.758H314.75L311.855 308.258L340.993 257.764L372.483 263.194L339.183 299.39L377.732 363.277H375.922ZM475.404 346.445C469.854 351.633 464.968 355.736 460.745 358.752C456.522 361.768 452.721 363.277 449.343 363.277C446.688 363.277 444.275 362.251 442.104 360.2C440.052 358.028 438.122 354.589 436.312 349.884C432.572 353.142 427.987 355.917 422.558 358.209C417.128 360.381 411.276 361.829 405.002 362.553C403.072 362.794 401.202 362.975 399.392 363.096C397.582 363.216 395.833 363.277 394.143 363.277C377.131 363.277 368.625 357.184 368.625 344.997C368.625 343.55 368.746 342.041 368.987 340.473C369.228 338.904 369.59 337.215 370.073 335.405C371.159 331.424 373.33 327.864 376.588 324.727C379.966 321.47 384.008 318.574 388.714 316.04C393.419 313.386 398.246 310.973 403.192 308.801C408.139 306.509 412.724 304.397 416.947 302.467C421.291 300.416 424.79 298.425 427.444 296.494C430.219 294.564 431.607 292.633 431.607 290.703C431.607 285.394 430.943 281.835 429.616 280.025C428.289 278.094 425.755 277.129 422.015 277.129C419.36 277.129 415.258 277.37 409.708 277.853C404.158 278.336 398.065 279.06 391.429 280.025C384.793 280.99 378.458 282.257 372.426 283.826L371.521 282.016C374.778 278.879 378.941 275.862 384.008 272.967C389.197 270.071 394.686 267.477 400.478 265.184C406.39 262.892 412.242 261.082 418.033 259.755C423.824 258.428 429.073 257.764 433.778 257.764C441.259 257.764 446.809 258.548 450.429 260.117C454.169 261.565 456.642 264.521 457.849 268.985C459.176 273.329 459.84 279.904 459.84 288.712V334.5C459.84 338.844 460.202 341.981 460.926 343.912C461.77 345.721 463.64 346.626 466.536 346.626C467.501 346.626 468.648 346.506 469.975 346.264C471.423 346.023 472.991 345.721 474.68 345.359L475.404 346.445ZM433.054 306.448C430.4 308.741 426.841 311.214 422.377 313.869C418.033 316.402 413.81 319.177 409.708 322.194C405.606 325.089 402.589 328.347 400.659 331.967C398.97 335.345 398.125 338.301 398.125 340.835C398.125 343.248 398.849 345.239 400.297 346.807C401.865 348.376 404.037 349.16 406.812 349.16C407.415 349.16 408.019 349.16 408.622 349.16C409.346 349.039 410.009 348.919 410.613 348.798C413.026 348.195 415.801 347.35 418.938 346.264C422.196 345.178 425.212 343.912 427.987 342.464C430.883 341.016 432.934 339.568 434.14 338.12L433.054 306.448ZM478.532 360.924L472.016 260.117H503.869L503.326 278.034C506.101 274.414 509.48 271.096 513.461 268.08C517.443 264.943 521.726 262.47 526.311 260.66C531.017 258.729 535.722 257.764 540.428 257.764V284.368C538.015 283.041 535.3 282.076 532.283 281.473C529.388 280.749 526.371 280.387 523.234 280.387C519.494 280.387 515.814 280.869 512.194 281.835C508.575 282.679 505.558 283.946 503.145 285.635L500.793 360.924H478.532ZM638.917 346.445C633.367 351.633 628.481 355.736 624.258 358.752C620.035 361.768 616.234 363.277 612.856 363.277C610.201 363.277 607.788 362.251 605.617 360.2C603.565 358.028 601.635 354.589 599.825 349.884C596.085 353.142 591.5 355.917 586.07 358.209C580.641 360.381 574.789 361.829 568.515 362.553C566.585 362.794 564.715 362.975 562.905 363.096C561.095 363.216 559.345 363.277 557.656 363.277C540.644 363.277 532.138 357.184 532.138 344.997C532.138 343.55 532.258 342.041 532.5 340.473C532.741 338.904 533.103 337.215 533.586 335.405C534.672 331.424 536.843 327.864 540.101 324.727C543.479 321.47 547.521 318.574 552.227 316.04C556.932 313.386 561.759 310.973 566.705 308.801C571.652 306.509 576.237 304.397 580.46 302.467C584.804 300.416 588.303 298.425 590.957 296.494C593.732 294.564 595.12 292.633 595.12 290.703C595.12 285.394 594.456 281.835 593.129 280.025C591.802 278.094 589.268 277.129 585.528 277.129C582.873 277.129 578.771 277.37 573.221 277.853C567.671 278.336 561.578 279.06 554.942 280.025C548.306 280.99 541.971 282.257 535.938 283.826L535.034 282.016C538.291 278.879 542.454 275.862 547.521 272.967C552.709 270.071 558.199 267.477 563.991 265.184C569.903 262.892 575.754 261.082 581.546 259.755C587.337 258.428 592.586 257.764 597.291 257.764C604.772 257.764 610.322 258.548 613.942 260.117C617.682 261.565 620.155 264.521 621.362 268.985C622.689 273.329 623.353 279.904 623.353 288.712V334.5C623.353 338.844 623.715 341.981 624.439 343.912C625.283 345.721 627.153 346.626 630.049 346.626C631.014 346.626 632.161 346.506 633.488 346.264C634.936 346.023 636.504 345.721 638.193 345.359L638.917 346.445ZM596.567 306.448C593.913 308.741 590.354 311.214 585.889 313.869C581.546 316.402 577.323 319.177 573.221 322.194C569.118 325.089 566.102 328.347 564.172 331.967C562.482 335.345 561.638 338.301 561.638 340.835C561.638 343.248 562.362 345.239 563.81 346.807C565.378 348.376 567.55 349.16 570.325 349.16C570.928 349.16 571.532 349.16 572.135 349.16C572.859 349.039 573.522 348.919 574.126 348.798C576.539 348.195 579.314 347.35 582.451 346.264C585.708 345.178 588.725 343.912 591.5 342.464C594.396 341.016 596.447 339.568 597.653 338.12L596.567 306.448Z" fill="white"/>
<defs>
<filter id="filter0_d_564_70" x="49.5337" y="0.689016" width="587.933" height="587.933" filterUnits="userSpaceOnUse" color-interpolation-filters="sRGB">
<feFlood flood-opacity="0" result="BackgroundImageFix"/>
<feColorMatrix in="SourceAlpha" type="matrix" values="0 0 0 0 0 0 0 0 0 0 0 0 0 0 0 0 0 0 127 0" result="hardAlpha"/>
<feOffset dy="2.65581"/>
<feGaussianBlur stdDeviation="51"/>
<feComposite in2="hardAlpha" operator="out"/>
<feColorMatrix type="matrix" values="0 0 0 0 1 0 0 0 0 0 0 0 0 0 0 0 0 0 1 0"/>
<feBlend mode="normal" in2="BackgroundImageFix" result="effect1_dropShadow_564_70"/>
<feBlend mode="normal" in="SourceGraphic" in2="effect1_dropShadow_564_70" result="shape"/>
</filter>
</defs>
</svg>
