<svg width="195" height="139" viewBox="0 0 195 139" fill="none" xmlns="http://www.w3.org/2000/svg">
<path d="M2.76583 46.0905C9.75325 47.1978 16.7739 48.1391 23.8056 49.1468C31.2969 50.2265 38.7549 51.3283 46.7334 52.4689C46.1077 54.3846 45.626 55.9293 45.0724 57.4519C40.3218 70.6369 35.5657 83.8218 30.8041 97.0067L54.2579 88.5908C60.0826 78.6578 65.9294 68.7378 71.7984 58.8306C72.5514 57.5572 74.3453 55.8906 75.4803 56.0124C87.927 57.38 100.352 59.0244 112.754 60.7574C113.562 60.8681 114.786 62.3299 114.791 63.177C114.791 64.4061 114.791 65.6353 114.714 66.8645L145.482 55.7909L148.328 30.1833L85.2638 35.709L99.1833 11.995L65.5529 0.495117C64.8885 2.09525 64.2573 3.45728 63.7535 4.86363C60.1712 14.8907 56.5557 24.8957 53.1228 34.9782C52.3477 37.2649 51.1407 38.2338 48.8706 38.4165C42.686 38.9204 36.507 39.5239 30.3279 40.0775C21.2421 40.8527 12.1451 41.5559 3.07035 42.4196C2.21769 42.5027 1.4647 43.527 0.661865 44.1471C1.35396 44.806 1.96854 45.9631 2.76583 46.0905Z" fill="white"/>
<path d="M75.7021 84.4708C70.4237 99.1063 65.1434 113.742 59.8613 128.377C59.0253 130.692 58.6488 132.563 61.9542 133.244C62.5079 132.447 63.0616 131.644 63.5765 130.786C73.1736 114.5 82.7596 98.213 92.3346 81.9238L94.8815 77.583L75.7021 84.4708Z" fill="white"/>
<path d="M164.13 52.6909C163.133 68.2991 162.103 83.9073 161.184 99.5266C160.891 104.51 161.079 104.604 155.847 104.726C141.385 105.058 126.917 105.279 112.455 105.717C111.104 105.755 109.786 106.824 108.452 107.455C109.515 108.48 110.401 109.952 111.669 110.451C128.883 117.244 146.141 123.905 163.399 130.593C169.96 133.135 176.527 135.643 183.52 138.345L194.228 41.8721L164.13 52.6909Z" fill="white"/>
</svg>
